<svg xmlns="http://www.w3.org/2000/svg" version="1.1" xmlns:xlink="http://www.w3.org/1999/xlink" xmlns:svgjs="http://svgjs.dev/svgjs" width="1000" height="750" viewBox="0 0 1000 750"><rect width="1000" height="750" fill="#000000"></rect><g transform="matrix(0.834,0,0,0.834,82.494545588839,115.4193570850203)"><svg viewBox="0 0 396 247" data-background-color="#000000" preserveAspectRatio="xMidYMid meet" height="623" width="1000" xmlns="http://www.w3.org/2000/svg" xmlns:xlink="http://www.w3.org/1999/xlink"><g id="tight-bounds" transform="matrix(1,0,0,1,0.2400000637653079,-0.09999999999999432)"><svg viewBox="0 0 395.52 247.2" height="247.2" width="395.52"><g><svg></svg></g><g><svg viewBox="0 0 395.52 247.2" height="247.2" width="395.52"><g><g><path xmlns="http://www.w3.org/2000/svg" d="M41.917 234.233c-16.411-8.691-30.048-20.432-40.912-35.225l21.149-18.722c8.321 13.175 18.953 23.622 31.897 31.342 12.944 7.766 26.927 11.649 41.951 11.649 16.411 0 28.892-3.652 37.444-10.955 8.552-7.258 12.828-17.127 12.828-29.609 0-7.276-1.296-13.651-3.889-19.125h28.004c1.49 5.856 2.235 12.231 2.235 19.125 0 12.712-3.236 23.923-9.708 33.63-6.472 9.708-15.763 17.266-27.875 22.675-12.158 5.455-26.326 8.182-42.506 8.182-17.335 0-34.208-4.322-50.618-12.967zM14.18 64.14c0-20.571 6.703-36.404 20.109-47.498 13.406-11.095 32.012-16.642 55.819-16.642 17.335 0 32.891 3.236 46.667 9.708 13.729 6.472 26.026 16.411 36.889 29.816l-20.455 17.335c-8.321-11.326-17.451-19.716-27.39-25.17-9.939-5.409-21.842-8.113-35.711-8.113-14.562 0-26.465 3.398-35.71 10.193-9.245 6.842-13.868 16.156-13.868 27.944 0 8.568 2.173 15.867 6.519 21.899l-29.557 0c-2.208-6.031-3.312-12.521-3.312-19.472zM391.048 241.653h-147.696v-21.843l36.539-56.222 28.148 0-36.951 56.569h119.96zM368.858 26.696h-122.039v-21.495h147.696v26.002l-34.234 52.409-28.413 0z" fill="#89939e" fill-rule="nonzero" stroke="none" stroke-width="1" stroke-linecap="butt" stroke-linejoin="miter" stroke-miterlimit="10" stroke-dasharray="" stroke-dashoffset="0" font-family="none" font-weight="none" font-size="none" text-anchor="none" style="mix-blend-mode: normal" data-fill-palette-color="tertiary"></path></g></g><g transform="matrix(1,0,0,1,0,92.64567951318458)"><svg viewBox="0 0 395.52 61.90864097363084" height="61.90864097363084" width="395.52"><g><svg viewBox="0 0 395.52 61.90864097363084" height="61.90864097363084" width="395.52"><g><svg viewBox="0 0 395.52 61.90864097363084" height="61.90864097363084" width="395.52"><g><svg viewBox="0 0 395.52 61.90864097363084" height="61.90864097363084" width="395.52"><g id="textblocktransform"><svg viewBox="0 0 395.52 61.90864097363084" height="61.90864097363084" width="395.52" id="textblock"><g><svg viewBox="0 0 395.52 61.90864097363084" height="61.90864097363084" width="395.52"><g transform="matrix(1,0,0,1,0,0)"><svg width="395.52" viewBox="2.1500000953674316 -36.29999923706055 295.77001953125 46.29999923706055" height="61.90864097363084" data-palette-color="#89939e"><path d="M15.35 0.8Q11.6 0.8 8.05-1.07 4.5-2.95 2.15-6.15L2.15-6.15 5.2-8.85Q7-6 9.8-4.33 12.6-2.65 15.85-2.65L15.85-2.65Q19.4-2.65 21.25-4.23 23.1-5.8 23.1-8.5L23.1-8.5Q23.1-11.45 21.13-13.03 19.15-14.6 14.85-15.8L14.85-15.8Q4.05-18.45 4.05-25.6L4.05-25.6Q4.05-30.05 6.95-32.45 9.85-34.85 15-34.85L15-34.85Q18.75-34.85 21.73-33.45 24.7-32.05 27.05-29.15L27.05-29.15 24.1-26.65Q22.3-29.1 20.15-30.28 18-31.45 15-31.45L15-31.45Q11.85-31.45 9.85-29.98 7.85-28.5 7.85-25.95L7.85-25.95Q7.85-23.35 9.7-21.83 11.55-20.3 15.95-19.25L15.95-19.25Q21.15-17.85 24.03-15.4 26.9-12.95 26.9-8.5L26.9-8.5Q26.9-5.75 25.5-3.65 24.1-1.55 21.48-0.38 18.85 0.8 15.35 0.8L15.35 0.8ZM43.9-24.2Q47.25-24.2 49.9-22.6 52.55-21 54.05-18.15 55.55-15.3 55.55-11.65L55.55-11.65Q55.55-8.05 54.07-5.23 52.6-2.4 49.97-0.8 47.35 0.8 44 0.8L44 0.8Q41.45 0.8 39.32-0.33 37.2-1.45 35.75-3.5L35.75-3.5 35.75 10 32.35 10 32.35-23.4 35.75-23.4 35.75-19.95Q37.2-21.95 39.3-23.08 41.4-24.2 43.9-24.2L43.9-24.2ZM44-2.3Q46.35-2.3 48.2-3.5 50.05-4.7 51.1-6.83 52.15-8.95 52.15-11.65L52.15-11.65Q52.15-14.4 51.1-16.55 50.05-18.7 48.2-19.9 46.35-21.1 44-21.1L44-21.1Q41.6-21.1 39.72-19.9 37.85-18.7 36.8-16.55 35.75-14.4 35.75-11.7L35.75-11.7Q35.75-9 36.8-6.85 37.85-4.7 39.72-3.5 41.6-2.3 44-2.3L44-2.3ZM70.55 0.8Q67.2 0.8 64.55-0.8 61.9-2.4 60.4-5.28 58.9-8.15 58.9-11.75L58.9-11.75Q58.9-15.35 60.37-18.18 61.85-21 64.47-22.6 67.1-24.2 70.45-24.2L70.45-24.2Q73.8-24.2 76.45-22.6 79.1-21 80.6-18.15 82.1-15.3 82.1-11.7L82.1-11.7Q82.1-8.1 80.62-5.25 79.15-2.4 76.52-0.8 73.9 0.8 70.55 0.8L70.55 0.8ZM70.45-2.3Q72.85-2.3 74.72-3.5 76.6-4.7 77.65-6.85 78.7-9 78.7-11.7L78.7-11.7Q78.7-14.4 77.65-16.55 76.6-18.7 74.72-19.9 72.85-21.1 70.45-21.1L70.45-21.1Q68.1-21.1 66.25-19.9 64.4-18.7 63.35-16.57 62.3-14.45 62.3-11.75L62.3-11.75Q62.3-9 63.35-6.85 64.4-4.7 66.25-3.5 68.1-2.3 70.45-2.3L70.45-2.3ZM98.39-24.2Q99.59-24.2 100.69-23.85L100.69-23.85 100.69-20.75Q99.64-21.25 98.39-21.25L98.39-21.25Q96.24-21.25 94.39-20.05 92.54-18.85 91.42-16.57 90.29-14.3 90.29-11.2L90.29-11.2 90.29 0 86.89 0 86.89-23.4 90.29-23.4 90.29-18.7Q91.64-21.3 93.72-22.75 95.79-24.2 98.39-24.2L98.39-24.2ZM108.49 0L105.09 0 105.09-20.3 101.09-20.3 101.09-23.4 105.09-23.4 105.09-31.15 108.49-31.15 108.49-23.4 113.89-23.4 113.89-20.3 108.49-20.3 108.49 0ZM125.84 0.8Q122.44 0.8 119.86-0.65 117.29-2.1 115.94-4.75L115.94-4.75 118.99-6.25Q120.84-2.3 126.24-2.3L126.24-2.3Q128.84-2.3 130.54-3.25 132.24-4.2 132.24-6.2L132.24-6.2Q132.24-8.25 130.86-9.25 129.49-10.25 126.04-10.55L126.04-10.55Q121.24-10.95 119.16-12.7 117.09-14.45 117.09-17.35L117.09-17.35Q117.09-20.6 119.44-22.4 121.79-24.2 125.89-24.2L125.89-24.2Q132.84-24.2 135.34-18.7L135.34-18.7 132.29-17.2Q131.44-19.2 129.81-20.15 128.19-21.1 125.64-21.1L125.64-21.1Q123.04-21.1 121.66-20.15 120.29-19.2 120.29-17.45L120.29-17.45Q120.29-15.8 121.76-14.78 123.24-13.75 126.84-13.45L126.84-13.45Q131.29-13.05 133.46-11.28 135.64-9.5 135.64-6.6L135.64-6.6Q135.64-4.25 134.29-2.58 132.94-0.9 130.69-0.05 128.44 0.8 125.84 0.8L125.84 0.8ZM159.04 0L155.24 0 147.04-12.05 144.19-9.3 144.19 0 140.79 0 140.79-36.3 144.19-36.3 144.19-13.6 154.44-23.4 158.84-23.4 149.39-14.3 159.04 0ZM180.93-23.4L184.33-23.4 184.33 0 180.93 0 180.93-3.45Q179.48-1.45 177.38-0.33 175.28 0.8 172.78 0.8L172.78 0.8Q169.43 0.8 166.78-0.8 164.13-2.4 162.63-5.25 161.13-8.1 161.13-11.75L161.13-11.75Q161.13-15.35 162.61-18.18 164.08-21 166.71-22.6 169.33-24.2 172.68-24.2L172.68-24.2Q175.23-24.2 177.36-23.08 179.48-21.95 180.93-19.9L180.93-19.9 180.93-23.4ZM172.68-2.3Q175.08-2.3 176.96-3.5 178.83-4.7 179.88-6.85 180.93-9 180.93-11.7L180.93-11.7Q180.93-14.4 179.88-16.55 178.83-18.7 176.96-19.9 175.08-21.1 172.68-21.1L172.68-21.1Q170.33-21.1 168.48-19.9 166.63-18.7 165.58-16.57 164.53-14.45 164.53-11.75L164.53-11.75Q164.53-9 165.58-6.85 166.63-4.7 168.48-3.5 170.33-2.3 172.68-2.3L172.68-2.3ZM200.48-23.4L217.78-23.4 217.78-20.3 204.38-3.1 217.78-3.1 217.78 0 200.48 0 200.48-3.1 213.88-20.3 200.48-20.3 200.48-23.4ZM232.98 0.8Q229.63 0.8 226.98-0.8 224.33-2.4 222.83-5.28 221.33-8.15 221.33-11.75L221.33-11.75Q221.33-15.35 222.8-18.18 224.28-21 226.9-22.6 229.53-24.2 232.88-24.2L232.88-24.2Q236.23-24.2 238.88-22.6 241.53-21 243.03-18.15 244.53-15.3 244.53-11.7L244.53-11.7Q244.53-8.1 243.05-5.25 241.58-2.4 238.95-0.8 236.33 0.8 232.98 0.8L232.98 0.8ZM232.88-2.3Q235.28-2.3 237.15-3.5 239.03-4.7 240.08-6.85 241.13-9 241.13-11.7L241.13-11.7Q241.13-14.4 240.08-16.55 239.03-18.7 237.15-19.9 235.28-21.1 232.88-21.1L232.88-21.1Q230.53-21.1 228.68-19.9 226.83-18.7 225.78-16.57 224.73-14.45 224.73-11.75L224.73-11.75Q224.73-9 225.78-6.85 226.83-4.7 228.68-3.5 230.53-2.3 232.88-2.3L232.88-2.3ZM260.47-24.2Q262.92-24.2 265-23.2 267.07-22.2 268.3-20.25 269.52-18.3 269.52-15.65L269.52-15.65 269.52 0 266.12 0 266.12-14.15Q266.12-21.1 259.92-21.1L259.92-21.1Q256.32-21.1 254.52-18.55 252.72-16 252.72-11.7L252.72-11.7 252.72 0 249.32 0 249.32-23.4 252.72-23.4 252.72-19.5Q253.92-21.75 255.9-22.98 257.87-24.2 260.47-24.2L260.47-24.2ZM294.52-23.4L297.92-23.4 297.92 0 294.52 0 294.52-3.45Q293.07-1.45 290.97-0.33 288.87 0.8 286.37 0.8L286.37 0.8Q283.02 0.8 280.37-0.8 277.72-2.4 276.22-5.25 274.72-8.1 274.72-11.75L274.72-11.75Q274.72-15.35 276.2-18.18 277.67-21 280.3-22.6 282.92-24.2 286.27-24.2L286.27-24.2Q288.82-24.2 290.95-23.08 293.07-21.95 294.52-19.9L294.52-19.9 294.52-23.4ZM286.27-2.3Q288.67-2.3 290.55-3.5 292.42-4.7 293.47-6.85 294.52-9 294.52-11.7L294.52-11.7Q294.52-14.4 293.47-16.55 292.42-18.7 290.55-19.9 288.67-21.1 286.27-21.1L286.27-21.1Q283.92-21.1 282.07-19.9 280.22-18.7 279.17-16.57 278.12-14.45 278.12-11.75L278.12-11.75Q278.12-9 279.17-6.85 280.22-4.7 282.07-3.5 283.92-2.3 286.27-2.3L286.27-2.3Z" opacity="1" transform="matrix(1,0,0,1,0,0)" fill="#89939e" class="undefined-text-0" data-fill-palette-color="primary" id="text-0"></path></svg></g></svg></g></svg></g></svg></g><g></g></svg></g></svg></g></svg></g></svg></g><defs></defs></svg><rect width="395.52" height="247.2" fill="none" stroke="none" visibility="hidden"></rect></g></svg></g></svg>